solid IDLER
facet normal -0.793353340291238 -0.608761429008717 0.0
outer loop
vertex -57.3482070747732 -33.2681752550804 1.8
vertex -56.0287711164518 -34.987697673804 -3.09491321459632e-013
vertex -56.0287711164518 -34.987697673804 1.8
endloop
endfacet
facet normal -0.793353340291238 -0.608761429008717 0.0
outer loop
vertex -56.0287711164518 -34.987697673804 -3.09491321459632e-013
vertex -57.3482070747732 -33.2681752550804 1.8
vertex -57.3482070747732 -33.2681752550804 -3.09491321459632e-013
endloop
endfacet
facet normal -0.608761429008721 -0.793353340291235 0.0
outer loop
vertex -57.3482070747732 -33.2681752550804 1.8
vertex -59.0677294934968 -31.948739296759 -3.09491321459632e-013
vertex -57.3482070747732 -33.2681752550804 -3.09491321459632e-013
endloop
endfacet
facet normal -0.608761429008721 -0.793353340291235 0.0
outer loop
vertex -59.0677294934968 -31.948739296759 -3.09491321459632e-013
vertex -57.3482070747732 -33.2681752550804 1.8
vertex -59.0677294934968 -31.948739296759 1.8
endloop
endfacet
facet normal -0.382683432365092 -0.923879532511286 0.0
outer loop
vertex -59.0677294934968 -31.948739296759 1.8
vertex -61.0701557614317 -31.1193071789282 -3.09491321459632e-013
vertex -59.0677294934968 -31.948739296759 -3.09491321459632e-013
endloop
endfacet
facet normal -0.382683432365092 -0.923879532511286 0.0
outer loop
vertex -61.0701557614317 -31.1193071789282 -3.09491321459632e-013
vertex -59.0677294934968 -31.948739296759 1.8
vertex -61.0701557614317 -31.1193071789282 1.8
endloop
endfacet
facet normal -0.13052619222005 -0.991444861373811 0.0
outer loop
vertex -61.0701557614317 -31.1193071789282 1.8
vertex -63.2190238375838 -30.8364033297169 -3.09491321459632e-013
vertex -61.0701557614317 -31.1193071789282 -3.09491321459632e-013
endloop
endfacet
facet normal -0.13052619222005 -0.991444861373811 0.0
outer loop
vertex -63.2190238375838 -30.8364033297169 -3.09491321459632e-013
vertex -61.0701557614317 -31.1193071789282 1.8
vertex -63.2190238375838 -30.8364033297169 1.8
endloop
endfacet
facet normal 0.13052619222005 -0.991444861373811 0.0
outer loop
vertex -63.2190238375838 -30.8364033297169 1.8
vertex -65.367891913736 -31.1193071789282 -3.09491321459632e-013
vertex -63.2190238375838 -30.8364033297169 -3.09491321459632e-013
endloop
endfacet
facet normal 0.13052619222005 -0.991444861373811 0.0
outer loop
vertex -65.367891913736 -31.1193071789282 -3.09491321459632e-013
vertex -63.2190238375838 -30.8364033297169 1.8
vertex -65.367891913736 -31.1193071789282 1.8
endloop
endfacet
facet normal 0.382683432365089 -0.923879532511287 0.0
outer loop
vertex -65.367891913736 -31.1193071789282 1.8
vertex -67.3703181816709 -31.9487392967589 -3.09491321459632e-013
vertex -65.367891913736 -31.1193071789282 -3.09491321459632e-013
endloop
endfacet
facet normal 0.382683432365089 -0.923879532511287 0.0
outer loop
vertex -67.3703181816709 -31.9487392967589 -3.09491321459632e-013
vertex -65.367891913736 -31.1193071789282 1.8
vertex -67.3703181816709 -31.9487392967589 1.8
endloop
endfacet
facet normal 0.60876142900872 -0.793353340291236 0.0
outer loop
vertex -67.3703181816709 -31.9487392967589 1.8
vertex -69.0898406003944 -33.2681752550804 -3.09491321459632e-013
vertex -67.3703181816709 -31.9487392967589 -3.09491321459632e-013
endloop
endfacet
facet normal 0.60876142900872 -0.793353340291236 0.0
outer loop
vertex -69.0898406003944 -33.2681752550804 -3.09491321459632e-013
vertex -67.3703181816709 -31.9487392967589 1.8
vertex -69.0898406003944 -33.2681752550804 1.8
endloop
endfacet
facet normal 0.793353340291236 -0.60876142900872 0.0
outer loop
vertex -69.0898406003944 -33.2681752550804 -3.09491321459632e-013
vertex -70.4092765587159 -34.9876976738039 1.8
vertex -70.4092765587159 -34.9876976738039 -3.09491321459632e-013
endloop
endfacet
facet normal 0.793353340291236 -0.60876142900872 0.0
outer loop
vertex -70.4092765587159 -34.9876976738039 1.8
vertex -69.0898406003944 -33.2681752550804 -3.09491321459632e-013
vertex -69.0898406003944 -33.2681752550804 1.8
endloop
endfacet
facet normal 0.923879532511287 -0.38268343236509 0.0
outer loop
vertex -70.4092765587159 -34.9876976738039 -3.09491321459632e-013
vertex -71.2387086765466 -36.9901239417388 1.8
vertex -71.2387086765466 -36.9901239417388 -3.09491321459632e-013
endloop
endfacet
facet normal 0.923879532511287 -0.38268343236509 0.0
outer loop
vertex -71.2387086765466 -36.9901239417388 1.8
vertex -70.4092765587159 -34.9876976738039 -3.09491321459632e-013
vertex -70.4092765587159 -34.9876976738039 1.8
endloop
endfacet
facet normal 0.99144486137381 -0.130526192220053 0.0
outer loop
vertex -71.2387086765466 -36.9901239417388 -3.09491321459632e-013
vertex -71.5216125257579 -39.138992017891 1.8
vertex -71.5216125257579 -39.138992017891 -3.09491321459632e-013
endloop
endfacet
facet normal 0.99144486137381 -0.130526192220053 0.0
outer loop
vertex -71.5216125257579 -39.138992017891 1.8
vertex -71.2387086765466 -36.9901239417388 -3.09491321459632e-013
vertex -71.2387086765466 -36.9901239417388 1.8
endloop
endfacet
facet normal 0.99144486137381 0.130526192220054 0.0
outer loop
vertex -71.5216125257579 -39.138992017891 -3.09491321459632e-013
vertex -71.2387086765466 -41.2878600940431 1.8
vertex -71.2387086765466 -41.2878600940431 -3.09491321459632e-013
endloop
endfacet
facet normal 0.99144486137381 0.130526192220054 0.0
outer loop
vertex -71.2387086765466 -41.2878600940431 1.8
vertex -71.5216125257579 -39.138992017891 -3.09491321459632e-013
vertex -71.5216125257579 -39.138992017891 1.8
endloop
endfacet
facet normal 0.923879532511289 0.382683432365086 0.0
outer loop
vertex -71.2387086765466 -41.2878600940431 -3.09491321459632e-013
vertex -70.4092765587159 -43.290286361978 1.8
vertex -70.4092765587159 -43.290286361978 -3.09491321459632e-013
endloop
endfacet
facet normal 0.923879532511289 0.382683432365086 0.0
outer loop
vertex -70.4092765587159 -43.290286361978 1.8
vertex -71.2387086765466 -41.2878600940431 -3.09491321459632e-013
vertex -71.2387086765466 -41.2878600940431 1.8
endloop
endfacet
facet normal 0.793353340291238 0.608761429008717 0.0
outer loop
vertex -70.4092765587159 -43.290286361978 -3.09491321459632e-013
vertex -69.0898406003944 -45.0098087807016 1.8
vertex -69.0898406003944 -45.0098087807016 -3.09491321459632e-013
endloop
endfacet
facet normal 0.793353340291238 0.608761429008717 0.0
outer loop
vertex -69.0898406003944 -45.0098087807016 1.8
vertex -70.4092765587159 -43.290286361978 -3.09491321459632e-013
vertex -70.4092765587159 -43.290286361978 1.8
endloop
endfacet
facet normal 0.60876142900872 0.793353340291236 0.0
outer loop
vertex -69.0898406003944 -45.0098087807016 1.8
vertex -67.3703181816709 -46.329244739023 -3.09491321459632e-013
vertex -69.0898406003944 -45.0098087807016 -3.09491321459632e-013
endloop
endfacet
facet normal 0.60876142900872 0.793353340291236 0.0
outer loop
vertex -67.3703181816709 -46.329244739023 -3.09491321459632e-013
vertex -69.0898406003944 -45.0098087807016 1.8
vertex -67.3703181816709 -46.329244739023 1.8
endloop
endfacet
facet normal 0.382683432365092 0.923879532511286 0.0
outer loop
vertex -67.3703181816709 -46.329244739023 1.8
vertex -65.367891913736 -47.1586768568538 -3.09491321459632e-013
vertex -67.3703181816709 -46.329244739023 -3.09491321459632e-013
endloop
endfacet
facet normal 0.382683432365092 0.923879532511286 0.0
outer loop
vertex -65.367891913736 -47.1586768568538 -3.09491321459632e-013
vertex -67.3703181816709 -46.329244739023 1.8
vertex -65.367891913736 -47.1586768568538 1.8
endloop
endfacet
facet normal 0.13052619222005 0.991444861373811 0.0
outer loop
vertex -65.367891913736 -47.1586768568538 1.8
vertex -63.2190238375838 -47.441580706065 -3.09491321459632e-013
vertex -65.367891913736 -47.1586768568538 -3.09491321459632e-013
endloop
endfacet
facet normal 0.13052619222005 0.991444861373811 0.0
outer loop
vertex -63.2190238375838 -47.441580706065 -3.09491321459632e-013
vertex -65.367891913736 -47.1586768568538 1.8
vertex -63.2190238375838 -47.441580706065 1.8
endloop
endfacet
facet normal -0.13052619222005 0.991444861373811 0.0
outer loop
vertex -63.2190238375838 -47.441580706065 1.8
vertex -61.0701557614317 -47.1586768568538 -3.09491321459632e-013
vertex -63.2190238375838 -47.441580706065 -3.09491321459632e-013
endloop
endfacet
facet normal -0.13052619222005 0.991444861373811 0.0
outer loop
vertex -61.0701557614317 -47.1586768568538 -3.09491321459632e-013
vertex -63.2190238375838 -47.441580706065 1.8
vertex -61.0701557614317 -47.1586768568538 1.8
endloop
endfacet
facet normal -0.382683432365086 0.923879532511288 0.0
outer loop
vertex -61.0701557614317 -47.1586768568538 1.8
vertex -59.0677294934968 -46.329244739023 -3.09491321459632e-013
vertex -61.0701557614317 -47.1586768568538 -3.09491321459632e-013
endloop
endfacet
facet normal -0.382683432365086 0.923879532511288 0.0
outer loop
vertex -59.0677294934968 -46.329244739023 -3.09491321459632e-013
vertex -61.0701557614317 -47.1586768568538 1.8
vertex -59.0677294934968 -46.329244739023 1.8
endloop
endfacet
facet normal -0.60876142900872 0.793353340291236 0.0
outer loop
vertex -59.0677294934968 -46.329244739023 1.8
vertex -57.3482070747732 -45.0098087807016 -3.09491321459632e-013
vertex -59.0677294934968 -46.329244739023 -3.09491321459632e-013
endloop
endfacet
facet normal -0.60876142900872 0.793353340291236 0.0
outer loop
vertex -57.3482070747732 -45.0098087807016 -3.09491321459632e-013
vertex -59.0677294934968 -46.329244739023 1.8
vertex -57.3482070747732 -45.0098087807016 1.8
endloop
endfacet
facet normal -0.793353340291236 0.608761429008719 0.0
outer loop
vertex -56.0287711164518 -43.290286361978 1.8
vertex -57.3482070747732 -45.0098087807016 -3.09491321459632e-013
vertex -57.3482070747732 -45.0098087807016 1.8
endloop
endfacet
facet normal -0.793353340291236 0.608761429008719 0.0
outer loop
vertex -57.3482070747732 -45.0098087807016 -3.09491321459632e-013
vertex -56.0287711164518 -43.290286361978 1.8
vertex -56.0287711164518 -43.290286361978 -3.09491321459632e-013
endloop
endfacet
facet normal -0.923879532511288 0.382683432365088 0.0
outer loop
vertex -55.1993389986211 -41.2878600940431 1.8
vertex -56.0287711164518 -43.290286361978 -3.09491321459632e-013
vertex -56.0287711164518 -43.290286361978 1.8
endloop
endfacet
facet normal -0.923879532511288 0.382683432365088 0.0
outer loop
vertex -56.0287711164518 -43.290286361978 -3.09491321459632e-013
vertex -55.1993389986211 -41.2878600940431 1.8
vertex -55.1993389986211 -41.2878600940431 -3.09491321459632e-013
endloop
endfacet
facet normal -0.99144486137381 0.130526192220053 0.0
outer loop
vertex -54.9164351494098 -39.138992017891 1.8
vertex -55.1993389986211 -41.2878600940431 -3.09491321459632e-013
vertex -55.1993389986211 -41.2878600940431 1.8
endloop
endfacet
facet normal -0.99144486137381 0.130526192220053 0.0
outer loop
vertex -55.1993389986211 -41.2878600940431 -3.09491321459632e-013
vertex -54.9164351494098 -39.138992017891 1.8
vertex -54.9164351494098 -39.138992017891 -3.09491321459632e-013
endloop
endfacet
facet normal -0.99144486137381 -0.130526192220053 0.0
outer loop
vertex -55.1993389986211 -36.9901239417388 1.8
vertex -54.9164351494098 -39.138992017891 -3.09491321459632e-013
vertex -54.9164351494098 -39.138992017891 1.8
endloop
endfacet
facet normal -0.99144486137381 -0.130526192220053 0.0
outer loop
vertex -54.9164351494098 -39.138992017891 -3.09491321459632e-013
vertex -55.1993389986211 -36.9901239417388 1.8
vertex -55.1993389986211 -36.9901239417388 -3.09491321459632e-013
endloop
endfacet
facet normal -0.923879532511287 -0.382683432365089 0.0
outer loop
vertex -56.0287711164518 -34.987697673804 1.8
vertex -55.1993389986211 -36.9901239417388 -3.09491321459632e-013
vertex -55.1993389986211 -36.9901239417388 1.8
endloop
endfacet
facet normal -0.923879532511287 -0.382683432365089 0.0
outer loop
vertex -55.1993389986211 -36.9901239417388 -3.09491321459632e-013
vertex -56.0287711164518 -34.987697673804 1.8
vertex -56.0287711164518 -34.987697673804 -3.09491321459632e-013
endloop
endfacet
facet normal 0.0 0.0 -1.0
outer loop
vertex -72.0689233341406 -34.0295001612528 -2.55206966670585e-013
vertex -71.2387086765466 -36.9901239417388 -3.09491321459632e-013
vertex -71.5216125257579 -39.138992017891 -3.09491321459632e-013
endloop
endfacet
facet normal 0.0 0.0 -1.0
outer loop
vertex -71.2387086765466 -36.9901239417388 -3.09491321459632e-013
vertex -72.0689233341406 -34.0295001612528 -2.55206966670585e-013
vertex -70.4449365180764 -31.9130793373984 -2.55206966670585e-013
endloop
endfacet
facet normal 0.0 0.0 -1.0
outer loop
vertex -71.2387086765466 -36.9901239417388 -3.09491321459632e-013
vertex -70.4449365180764 -31.9130793373984 -2.55206966670585e-013
vertex -70.4092765587159 -34.9876976738039 -3.09491321459632e-013
endloop
endfacet
facet normal 0.0 0.0 -1.0
outer loop
vertex -70.4092765587159 -34.9876976738039 -3.09491321459632e-013
vertex -70.4449365180764 -31.9130793373984 -2.55206966670585e-013
vertex -68.328515694222 -30.2890925213342 -2.55206966670585e-013
endloop
endfacet
facet normal 0.0 0.0 -1.0
outer loop
vertex -70.4092765587159 -34.9876976738039 -3.09491321459632e-013
vertex -68.328515694222 -30.2890925213342 -2.55206966670585e-013
vertex -69.0898406003944 -33.2681752550804 -3.09491321459632e-013
endloop
endfacet
facet normal 0.0 0.0 -1.0
outer loop
vertex -69.0898406003944 -33.2681752550804 -3.09491321459632e-013
vertex -68.328515694222 -30.2890925213342 -2.55206966670585e-013
vertex -67.3703181816709 -31.9487392967589 -3.09491321459632e-013
endloop
endfacet
facet normal 0.0 0.0 -1.0
outer loop
vertex -67.3703181816709 -31.9487392967589 -3.09491321459632e-013
vertex -68.328515694222 -30.2890925213342 -2.55206966670585e-013
vertex -65.8638914441722 -29.26821173081 -2.55206966670585e-013
endloop
endfacet
facet normal 0.0 0.0 -1.0
outer loop
vertex -67.3703181816709 -31.9487392967589 -3.09491321459632e-013
vertex -65.8638914441722 -29.26821173081 -2.55206966670585e-013
vertex -65.367891913736 -31.1193071789282 -3.09491321459632e-013
endloop
endfacet
facet normal 0.0 0.0 -1.0
outer loop
vertex -65.367891913736 -31.1193071789282 -3.09491321459632e-013
vertex -65.8638914441722 -29.26821173081 -2.55206966670585e-013
vertex -63.2190238375838 -28.9200083046147 -2.55206966670585e-013
endloop
endfacet
facet normal 0.0 0.0 -1.0
outer loop
vertex -65.367891913736 -31.1193071789282 -3.09491321459632e-013
vertex -63.2190238375838 -28.9200083046147 -2.55206966670585e-013
vertex -63.2190238375838 -30.8364033297169 -3.09491321459632e-013
endloop
endfacet
facet normal 0.0 0.0 -1.0
outer loop
vertex -63.2190238375838 -30.8364033297169 -3.09491321459632e-013
vertex -63.2190238375838 -28.9200083046147 -2.55206966670585e-013
vertex -60.5741562309954 -29.26821173081 -2.55206966670585e-013
endloop
endfacet
facet normal 0.0 0.0 -1.0
outer loop
vertex -63.2190238375838 -30.8364033297169 -3.09491321459632e-013
vertex -60.5741562309954 -29.26821173081 -2.55206966670585e-013
vertex -61.0701557614317 -31.1193071789282 -3.09491321459632e-013
endloop
endfacet
facet normal 0.0 0.0 -1.0
outer loop
vertex -61.0701557614317 -31.1193071789282 -3.09491321459632e-013
vertex -60.5741562309954 -29.26821173081 -2.55206966670585e-013
vertex -59.0677294934968 -31.948739296759 -3.09491321459632e-013
endloop
endfacet
facet normal 0.0 0.0 -1.0
outer loop
vertex -59.0677294934968 -31.948739296759 -3.09491321459632e-013
vertex -60.5741562309954 -29.26821173081 -2.55206966670585e-013
vertex -58.1095319809457 -30.2890925213343 -2.55206966670585e-013
endloop
endfacet
facet normal 0.0 0.0 -1.0
outer loop
vertex -59.0677294934968 -31.948739296759 -3.09491321459632e-013
vertex -58.1095319809457 -30.2890925213343 -2.55206966670585e-013
vertex -57.3482070747732 -33.2681752550804 -3.09491321459632e-013
endloop
endfacet
facet normal 0.0 0.0 -1.0
outer loop
vertex -57.3482070747732 -33.2681752550804 -3.09491321459632e-013
vertex -58.1095319809457 -30.2890925213343 -2.55206966670585e-013
vertex -55.9931111570912 -31.9130793373984 -2.55206966670585e-013
endloop
endfacet
facet normal 0.0 0.0 -1.0
outer loop
vertex -57.3482070747732 -33.2681752550804 -3.09491321459632e-013
vertex -55.9931111570912 -31.9130793373984 -2.55206966670585e-013
vertex -56.0287711164518 -34.987697673804 -3.09491321459632e-013
endloop
endfacet
facet normal 0.0 0.0 -1.0
outer loop
vertex -56.0287711164518 -34.987697673804 -3.09491321459632e-013
vertex -55.9931111570912 -31.9130793373984 -2.55206966670585e-013
vertex -55.1993389986211 -36.9901239417388 -3.09491321459632e-013
endloop
endfacet
facet normal 0.0 0.0 -1.0
outer loop
vertex -55.1993389986211 -36.9901239417388 -3.09491321459632e-013
vertex -55.9931111570912 -31.9130793373984 -2.55206966670585e-013
vertex -54.3691243410271 -34.0295001612528 -2.55206966670585e-013
endloop
endfacet
facet normal 0.0 0.0 -1.0
outer loop
vertex -55.1993389986211 -36.9901239417388 -3.09491321459632e-013
vertex -54.3691243410271 -34.0295001612528 -2.55206966670585e-013
vertex -54.9164351494098 -39.138992017891 -3.09491321459632e-013
endloop
endfacet
facet normal 0.0 0.0 -1.0
outer loop
vertex -73.0898041246648 -36.4941244113026 -2.55206966670585e-013
vertex -73.0898041246648 -41.7838596244794 -2.55206966670585e-013
vertex -73.4380075508602 -39.138992017891 -2.55206966670585e-013
endloop
endfacet
facet normal 0.0 0.0 -1.0
outer loop
vertex -73.0898041246648 -41.7838596244794 -2.55206966670585e-013
vertex -73.0898041246648 -36.4941244113026 -2.55206966670585e-013
vertex -72.0689233341406 -34.0295001612528 -2.55206966670585e-013
endloop
endfacet
facet normal 0.0 0.0 -1.0
outer loop
vertex -73.0898041246648 -41.7838596244794 -2.55206966670585e-013
vertex -72.0689233341406 -34.0295001612528 -2.55206966670585e-013
vertex -72.0689233341406 -44.2484838745291 -2.55206966670585e-013
endloop
endfacet
facet normal 0.0 0.0 -1.0
outer loop
vertex -72.0689233341406 -44.2484838745291 -2.55206966670585e-013
vertex -72.0689233341406 -34.0295001612528 -2.55206966670585e-013
vertex -71.5216125257579 -39.138992017891 -3.09491321459632e-013
endloop
endfacet
facet normal 0.0 0.0 -1.0
outer loop
vertex -72.0689233341406 -44.2484838745291 -2.55206966670585e-013
vertex -71.5216125257579 -39.138992017891 -3.09491321459632e-013
vertex -71.2387086765466 -41.2878600940431 -3.09491321459632e-013
endloop
endfacet
facet normal 0.0 0.0 -1.0
outer loop
vertex -72.0689233341406 -44.2484838745291 -2.55206966670585e-013
vertex -71.2387086765466 -41.2878600940431 -3.09491321459632e-013
vertex -70.4449365180764 -46.3649046983836 -2.55206966670585e-013
endloop
endfacet
facet normal 0.0 0.0 -1.0
outer loop
vertex -70.4449365180764 -46.3649046983836 -2.55206966670585e-013
vertex -71.2387086765466 -41.2878600940431 -3.09491321459632e-013
vertex -70.4092765587159 -43.290286361978 -3.09491321459632e-013
endloop
endfacet
facet normal 0.0 0.0 -1.0
outer loop
vertex -70.4449365180764 -46.3649046983836 -2.55206966670585e-013
vertex -70.4092765587159 -43.290286361978 -3.09491321459632e-013
vertex -68.328515694222 -47.9888915144477 -2.55206966670585e-013
endloop
endfacet
facet normal 0.0 0.0 -1.0
outer loop
vertex -68.328515694222 -47.9888915144477 -2.55206966670585e-013
vertex -70.4092765587159 -43.290286361978 -3.09491321459632e-013
vertex -69.0898406003944 -45.0098087807016 -3.09491321459632e-013
endloop
endfacet
facet normal 0.0 0.0 -1.0
outer loop
vertex -68.328515694222 -47.9888915144477 -2.55206966670585e-013
vertex -69.0898406003944 -45.0098087807016 -3.09491321459632e-013
vertex -67.3703181816709 -46.329244739023 -3.09491321459632e-013
endloop
endfacet
facet normal 0.0 0.0 -1.0
outer loop
vertex -68.328515694222 -47.9888915144477 -2.55206966670585e-013
vertex -67.3703181816709 -46.329244739023 -3.09491321459632e-013
vertex -65.8638914441722 -49.009772304972 -2.55206966670585e-013
endloop
endfacet
facet normal 0.0 0.0 -1.0
outer loop
vertex -65.8638914441722 -49.009772304972 -2.55206966670585e-013
vertex -67.3703181816709 -46.329244739023 -3.09491321459632e-013
vertex -65.367891913736 -47.1586768568538 -3.09491321459632e-013
endloop
endfacet
facet normal 0.0 0.0 -1.0
outer loop
vertex -65.8638914441722 -49.009772304972 -2.55206966670585e-013
vertex -65.367891913736 -47.1586768568538 -3.09491321459632e-013
vertex -63.2190238375838 -49.3579757311673 -2.55206966670585e-013
endloop
endfacet
facet normal 0.0 0.0 -1.0
outer loop
vertex -63.2190238375838 -49.3579757311673 -2.55206966670585e-013
vertex -65.367891913736 -47.1586768568538 -3.09491321459632e-013
vertex -63.2190238375838 -47.441580706065 -3.09491321459632e-013
endloop
endfacet
facet normal 0.0 0.0 -1.0
outer loop
vertex -63.2190238375838 -49.3579757311673 -2.55206966670585e-013
vertex -63.2190238375838 -47.441580706065 -3.09491321459632e-013
vertex -61.0701557614317 -47.1586768568538 -3.09491321459632e-013
endloop
endfacet
facet normal 0.0 0.0 -1.0
outer loop
vertex -63.2190238375838 -49.3579757311673 -2.55206966670585e-013
vertex -61.0701557614317 -47.1586768568538 -3.09491321459632e-013
vertex -60.5741562309955 -49.009772304972 -2.55206966670585e-013
endloop
endfacet
facet normal 0.0 0.0 -1.0
outer loop
vertex -60.5741562309955 -49.009772304972 -2.55206966670585e-013
vertex -61.0701557614317 -47.1586768568538 -3.09491321459632e-013
vertex -59.0677294934968 -46.329244739023 -3.09491321459632e-013
endloop
endfacet
facet normal 0.0 0.0 -1.0
outer loop
vertex -60.5741562309955 -49.009772304972 -2.55206966670585e-013
vertex -59.0677294934968 -46.329244739023 -3.09491321459632e-013
vertex -58.1095319809457 -47.9888915144477 -2.55206966670585e-013
endloop
endfacet
facet normal 0.0 0.0 -1.0
outer loop
vertex -58.1095319809457 -47.9888915144477 -2.55206966670585e-013
vertex -59.0677294934968 -46.329244739023 -3.09491321459632e-013
vertex -57.3482070747732 -45.0098087807016 -3.09491321459632e-013
endloop
endfacet
facet normal 0.0 0.0 -1.0
outer loop
vertex -58.1095319809457 -47.9888915144477 -2.55206966670585e-013
vertex -57.3482070747732 -45.0098087807016 -3.09491321459632e-013
vertex -55.9931111570912 -46.3649046983835 -2.55206966670585e-013
endloop
endfacet
facet normal 0.0 0.0 -1.0
outer loop
vertex -55.9931111570912 -46.3649046983835 -2.55206966670585e-013
vertex -57.3482070747732 -45.0098087807016 -3.09491321459632e-013
vertex -56.0287711164518 -43.290286361978 -3.09491321459632e-013
endloop
endfacet
facet normal 0.0 0.0 -1.0
outer loop
vertex -55.9931111570912 -46.3649046983835 -2.55206966670585e-013
vertex -56.0287711164518 -43.290286361978 -3.09491321459632e-013
vertex -55.1993389986211 -41.2878600940431 -3.09491321459632e-013
endloop
endfacet
facet normal 0.0 0.0 -1.0
outer loop
vertex -55.9931111570912 -46.3649046983835 -2.55206966670585e-013
vertex -55.1993389986211 -41.2878600940431 -3.09491321459632e-013
vertex -54.3691243410271 -44.2484838745292 -2.55206966670585e-013
endloop
endfacet
facet normal 0.0 0.0 -1.0
outer loop
vertex -54.3691243410271 -44.2484838745292 -2.55206966670585e-013
vertex -55.1993389986211 -41.2878600940431 -3.09491321459632e-013
vertex -54.9164351494098 -39.138992017891 -3.09491321459632e-013
endloop
endfacet
facet normal 0.0 0.0 -1.0
outer loop
vertex -54.3691243410271 -44.2484838745292 -2.55206966670585e-013
vertex -54.9164351494098 -39.138992017891 -3.09491321459632e-013
vertex -54.3691243410271 -34.0295001612528 -2.55206966670585e-013
endloop
endfacet
facet normal 0.0 0.0 -1.0
outer loop
vertex -54.3691243410271 -44.2484838745292 -2.55206966670585e-013
vertex -54.3691243410271 -34.0295001612528 -2.55206966670585e-013
vertex -53.3482435505029 -36.4941244113026 -2.55206966670585e-013
endloop
endfacet
facet normal 0.0 0.0 -1.0
outer loop
vertex -54.3691243410271 -44.2484838745292 -2.55206966670585e-013
vertex -53.3482435505029 -36.4941244113026 -2.55206966670585e-013
vertex -53.3482435505029 -41.7838596244794 -2.55206966670585e-013
endloop
endfacet
facet normal 0.0 0.0 -1.0
outer loop
vertex -53.3482435505029 -41.7838596244794 -2.55206966670585e-013
vertex -53.3482435505029 -36.4941244113026 -2.55206966670585e-013
vertex -53.0000401243075 -39.138992017891 -2.55206966670585e-013
endloop
endfacet
facet normal 6.34587090355209e-033 -1.90376127106563e-032 1.0
outer loop
vertex -73.0898041246648 -41.7838596244794 1.8
vertex -73.0898041246648 -36.4941244113026 1.8
vertex -73.4380075508602 -39.138992017891 1.8
endloop
endfacet
facet normal 6.34587090355209e-033 -1.90376127106563e-032 1.0
outer loop
vertex -73.0898041246648 -36.4941244113026 1.8
vertex -73.0898041246648 -41.7838596244794 1.8
vertex -72.0689233341406 -44.2484838745291 1.8
endloop
endfacet
facet normal 6.34587090355209e-033 -1.90376127106563e-032 1.0
outer loop
vertex -73.0898041246648 -36.4941244113026 1.8
vertex -72.0689233341406 -44.2484838745291 1.8
vertex -72.0689233341406 -34.0295001612528 1.8
endloop
endfacet
facet normal 6.34587090355209e-033 -1.90376127106563e-032 1.0
outer loop
vertex -72.0689233341406 -34.0295001612528 1.8
vertex -72.0689233341406 -44.2484838745291 1.8
vertex -71.5216125257579 -39.138992017891 1.8
endloop
endfacet
facet normal 6.34587090355209e-033 -1.90376127106563e-032 1.0
outer loop
vertex -71.5216125257579 -39.138992017891 1.8
vertex -72.0689233341406 -44.2484838745291 1.8
vertex -71.2387086765466 -41.2878600940431 1.8
endloop
endfacet
facet normal 6.34587090355209e-033 -1.90376127106563e-032 1.0
outer loop
vertex -71.2387086765466 -41.2878600940431 1.8
vertex -72.0689233341406 -44.2484838745291 1.8
vertex -70.4449365180764 -46.3649046983836 1.8
endloop
endfacet
facet normal 6.34587090355209e-033 -1.90376127106563e-032 1.0
outer loop
vertex -71.2387086765466 -41.2878600940431 1.8
vertex -70.4449365180764 -46.3649046983836 1.8
vertex -70.4092765587159 -43.290286361978 1.8
endloop
endfacet
facet normal 6.34587090355209e-033 -1.90376127106563e-032 1.0
outer loop
vertex -70.4092765587159 -43.290286361978 1.8
vertex -70.4449365180764 -46.3649046983836 1.8
vertex -68.328515694222 -47.9888915144477 1.8
endloop
endfacet
facet normal 6.34587090355209e-033 -1.90376127106563e-032 1.0
outer loop
vertex -70.4092765587159 -43.290286361978 1.8
vertex -68.328515694222 -47.9888915144477 1.8
vertex -69.0898406003944 -45.0098087807016 1.8
endloop
endfacet
facet normal 6.34587090355209e-033 -1.90376127106563e-032 1.0
outer loop
vertex -69.0898406003944 -45.0098087807016 1.8
vertex -68.328515694222 -47.9888915144477 1.8
vertex -67.3703181816709 -46.329244739023 1.8
endloop
endfacet
facet normal 6.34587090355209e-033 -1.90376127106563e-032 1.0
outer loop
vertex -67.3703181816709 -46.329244739023 1.8
vertex -68.328515694222 -47.9888915144477 1.8
vertex -65.8638914441722 -49.009772304972 1.8
endloop
endfacet
facet normal 6.34587090355209e-033 -1.90376127106563e-032 1.0
outer loop
vertex -67.3703181816709 -46.329244739023 1.8
vertex -65.8638914441722 -49.009772304972 1.8
vertex -65.367891913736 -47.1586768568538 1.8
endloop
endfacet
facet normal 6.34587090355209e-033 -1.90376127106563e-032 1.0
outer loop
vertex -65.367891913736 -47.1586768568538 1.8
vertex -65.8638914441722 -49.009772304972 1.8
vertex -63.2190238375838 -49.3579757311673 1.8
endloop
endfacet
facet normal 6.34587090355209e-033 -1.90376127106563e-032 1.0
outer loop
vertex -65.367891913736 -47.1586768568538 1.8
vertex -63.2190238375838 -49.3579757311673 1.8
vertex -63.2190238375838 -47.441580706065 1.8
endloop
endfacet
facet normal 6.34587090355209e-033 -1.90376127106563e-032 1.0
outer loop
vertex -63.2190238375838 -47.441580706065 1.8
vertex -63.2190238375838 -49.3579757311673 1.8
vertex -61.0701557614317 -47.1586768568538 1.8
endloop
endfacet
facet normal 6.34587090355209e-033 -1.90376127106563e-032 1.0
outer loop
vertex -61.0701557614317 -47.1586768568538 1.8
vertex -63.2190238375838 -49.3579757311673 1.8
vertex -60.5741562309955 -49.009772304972 1.8
endloop
endfacet
facet normal 6.34587090355209e-033 -1.90376127106563e-032 1.0
outer loop
vertex -61.0701557614317 -47.1586768568538 1.8
vertex -60.5741562309955 -49.009772304972 1.8
vertex -59.0677294934968 -46.329244739023 1.8
endloop
endfacet
facet normal 6.34587090355209e-033 -1.90376127106563e-032 1.0
outer loop
vertex -59.0677294934968 -46.329244739023 1.8
vertex -60.5741562309955 -49.009772304972 1.8
vertex -58.1095319809457 -47.9888915144477 1.8
endloop
endfacet
facet normal 6.34587090355209e-033 -1.90376127106563e-032 1.0
outer loop
vertex -59.0677294934968 -46.329244739023 1.8
vertex -58.1095319809457 -47.9888915144477 1.8
vertex -57.3482070747732 -45.0098087807016 1.8
endloop
endfacet
facet normal 6.34587090355209e-033 -1.90376127106563e-032 1.0
outer loop
vertex -57.3482070747732 -45.0098087807016 1.8
vertex -58.1095319809457 -47.9888915144477 1.8
vertex -55.9931111570912 -46.3649046983835 1.8
endloop
endfacet
facet normal 6.34587090355209e-033 -1.90376127106563e-032 1.0
outer loop
vertex -57.3482070747732 -45.0098087807016 1.8
vertex -55.9931111570912 -46.3649046983835 1.8
vertex -56.0287711164518 -43.290286361978 1.8
endloop
endfacet
facet normal 6.34587090355209e-033 -1.90376127106563e-032 1.0
outer loop
vertex -56.0287711164518 -43.290286361978 1.8
vertex -55.9931111570912 -46.3649046983835 1.8
vertex -55.1993389986211 -41.2878600940431 1.8
endloop
endfacet
facet normal 6.34587090355209e-033 -1.90376127106563e-032 1.0
outer loop
vertex -55.1993389986211 -41.2878600940431 1.8
vertex -55.9931111570912 -46.3649046983835 1.8
vertex -54.3691243410271 -44.2484838745292 1.8
endloop
endfacet
facet normal 6.34587090355209e-033 -1.90376127106563e-032 1.0
outer loop
vertex -55.1993389986211 -41.2878600940431 1.8
vertex -54.3691243410271 -44.2484838745292 1.8
vertex -54.9164351494098 -39.138992017891 1.8
endloop
endfacet
facet normal 6.34587090355209e-033 -1.90376127106563e-032 1.0
outer loop
vertex -54.9164351494098 -39.138992017891 1.8
vertex -54.3691243410271 -44.2484838745292 1.8
vertex -54.3691243410271 -34.0295001612528 1.8
endloop
endfacet
facet normal 6.34587090355209e-033 -1.90376127106563e-032 1.0
outer loop
vertex -54.3691243410271 -34.0295001612528 1.8
vertex -54.3691243410271 -44.2484838745292 1.8
vertex -53.3482435505029 -36.4941244113026 1.8
endloop
endfacet
facet normal 6.34587090355209e-033 -1.90376127106563e-032 1.0
outer loop
vertex -53.3482435505029 -36.4941244113026 1.8
vertex -54.3691243410271 -44.2484838745292 1.8
vertex -53.3482435505029 -41.7838596244794 1.8
endloop
endfacet
facet normal 6.34587090355209e-033 -1.90376127106563e-032 1.0
outer loop
vertex -53.3482435505029 -36.4941244113026 1.8
vertex -53.3482435505029 -41.7838596244794 1.8
vertex -53.0000401243075 -39.138992017891 1.8
endloop
endfacet
facet normal 6.34587090355209e-033 -1.90376127106563e-032 1.0
outer loop
vertex -72.0689233341406 -34.0295001612528 1.8
vertex -71.2387086765466 -36.9901239417388 1.8
vertex -70.4449365180764 -31.9130793373984 1.8
endloop
endfacet
facet normal 6.34587090355209e-033 -1.90376127106563e-032 1.0
outer loop
vertex -71.2387086765466 -36.9901239417388 1.8
vertex -72.0689233341406 -34.0295001612528 1.8
vertex -71.5216125257579 -39.138992017891 1.8
endloop
endfacet
facet normal 6.34587090355209e-033 -1.90376127106563e-032 1.0
outer loop
vertex -70.4449365180764 -31.9130793373984 1.8
vertex -71.2387086765466 -36.9901239417388 1.8
vertex -70.4092765587159 -34.9876976738039 1.8
endloop
endfacet
facet normal 6.34587090355209e-033 -1.90376127106563e-032 1.0
outer loop
vertex -70.4449365180764 -31.9130793373984 1.8
vertex -70.4092765587159 -34.9876976738039 1.8
vertex -68.328515694222 -30.2890925213342 1.8
endloop
endfacet
facet normal 6.34587090355209e-033 -1.90376127106563e-032 1.0
outer loop
vertex -68.328515694222 -30.2890925213342 1.8
vertex -70.4092765587159 -34.9876976738039 1.8
vertex -69.0898406003944 -33.2681752550804 1.8
endloop
endfacet
facet normal 6.34587090355209e-033 -1.90376127106563e-032 1.0
outer loop
vertex -68.328515694222 -30.2890925213342 1.8
vertex -69.0898406003944 -33.2681752550804 1.8
vertex -67.3703181816709 -31.9487392967589 1.8
endloop
endfacet
facet normal 6.34587090355209e-033 -1.90376127106563e-032 1.0
outer loop
vertex -68.328515694222 -30.2890925213342 1.8
vertex -67.3703181816709 -31.9487392967589 1.8
vertex -65.8638914441722 -29.26821173081 1.8
endloop
endfacet
facet normal 6.34587090355209e-033 -1.90376127106563e-032 1.0
outer loop
vertex -65.8638914441722 -29.26821173081 1.8
vertex -67.3703181816709 -31.9487392967589 1.8
vertex -65.367891913736 -31.1193071789282 1.8
endloop
endfacet
facet normal 6.34587090355209e-033 -1.90376127106563e-032 1.0
outer loop
vertex -65.8638914441722 -29.26821173081 1.8
vertex -65.367891913736 -31.1193071789282 1.8
vertex -63.2190238375838 -28.9200083046147 1.8
endloop
endfacet
facet normal 6.34587090355209e-033 -1.90376127106563e-032 1.0
outer loop
vertex -63.2190238375838 -28.9200083046147 1.8
vertex -65.367891913736 -31.1193071789282 1.8
vertex -63.2190238375838 -30.8364033297169 1.8
endloop
endfacet
facet normal 6.34587090355209e-033 -1.90376127106563e-032 1.0
outer loop
vertex -63.2190238375838 -28.9200083046147 1.8
vertex -63.2190238375838 -30.8364033297169 1.8
vertex -61.0701557614317 -31.1193071789282 1.8
endloop
endfacet
facet normal 6.34587090355209e-033 -1.90376127106563e-032 1.0
outer loop
vertex -63.2190238375838 -28.9200083046147 1.8
vertex -61.0701557614317 -31.1193071789282 1.8
vertex -60.5741562309954 -29.26821173081 1.8
endloop
endfacet
facet normal 6.34587090355209e-033 -1.90376127106563e-032 1.0
outer loop
vertex -60.5741562309954 -29.26821173081 1.8
vertex -61.0701557614317 -31.1193071789282 1.8
vertex -59.0677294934968 -31.948739296759 1.8
endloop
endfacet
facet normal 6.34587090355209e-033 -1.90376127106563e-032 1.0
outer loop
vertex -60.5741562309954 -29.26821173081 1.8
vertex -59.0677294934968 -31.948739296759 1.8
vertex -58.1095319809457 -30.2890925213343 1.8
endloop
endfacet
facet normal 6.34587090355209e-033 -1.90376127106563e-032 1.0
outer loop
vertex -58.1095319809457 -30.2890925213343 1.8
vertex -59.0677294934968 -31.948739296759 1.8
vertex -57.3482070747732 -33.2681752550804 1.8
endloop
endfacet
facet normal 6.34587090355209e-033 -1.90376127106563e-032 1.0
outer loop
vertex -58.1095319809457 -30.2890925213343 1.8
vertex -57.3482070747732 -33.2681752550804 1.8
vertex -55.9931111570912 -31.9130793373984 1.8
endloop
endfacet
facet normal 6.34587090355209e-033 -1.90376127106563e-032 1.0
outer loop
vertex -55.9931111570912 -31.9130793373984 1.8
vertex -57.3482070747732 -33.2681752550804 1.8
vertex -56.0287711164518 -34.987697673804 1.8
endloop
endfacet
facet normal 6.34587090355209e-033 -1.90376127106563e-032 1.0
outer loop
vertex -55.9931111570912 -31.9130793373984 1.8
vertex -56.0287711164518 -34.987697673804 1.8
vertex -55.1993389986211 -36.9901239417388 1.8
endloop
endfacet
facet normal 6.34587090355209e-033 -1.90376127106563e-032 1.0
outer loop
vertex -55.9931111570912 -31.9130793373984 1.8
vertex -55.1993389986211 -36.9901239417388 1.8
vertex -54.3691243410271 -34.0295001612528 1.8
endloop
endfacet
facet normal 6.34587090355209e-033 -1.90376127106563e-032 1.0
outer loop
vertex -54.3691243410271 -34.0295001612528 1.8
vertex -55.1993389986211 -36.9901239417388 1.8
vertex -54.9164351494098 -39.138992017891 1.8
endloop
endfacet
facet normal -0.99144486137381 0.130526192220056 0.0
outer loop
vertex -73.0898041246648 -36.4941244113026 1.8
vertex -73.4380075508602 -39.138992017891 -2.55206966670585e-013
vertex -73.4380075508602 -39.138992017891 1.8
endloop
endfacet
facet normal -0.99144486137381 0.130526192220056 0.0
outer loop
vertex -73.4380075508602 -39.138992017891 -2.55206966670585e-013
vertex -73.0898041246648 -36.4941244113026 1.8
vertex -73.0898041246648 -36.4941244113026 -2.55206966670585e-013
endloop
endfacet
facet normal -0.382683432365091 -0.923879532511286 0.0
outer loop
vertex -65.8638914441722 -49.009772304972 1.8
vertex -68.328515694222 -47.9888915144477 -2.55206966670585e-013
vertex -65.8638914441722 -49.009772304972 -2.55206966670585e-013
endloop
endfacet
facet normal -0.382683432365091 -0.923879532511286 0.0
outer loop
vertex -68.328515694222 -47.9888915144477 -2.55206966670585e-013
vertex -65.8638914441722 -49.009772304972 1.8
vertex -68.328515694222 -47.9888915144477 1.8
endloop
endfacet
facet normal 0.793353340291239 0.608761429008715 0.0
outer loop
vertex -55.9931111570912 -31.9130793373984 -2.55206966670585e-013
vertex -54.3691243410271 -34.0295001612528 1.8
vertex -54.3691243410271 -34.0295001612528 -2.55206966670585e-013
endloop
endfacet
facet normal 0.793353340291239 0.608761429008715 0.0
outer loop
vertex -54.3691243410271 -34.0295001612528 1.8
vertex -55.9931111570912 -31.9130793373984 -2.55206966670585e-013
vertex -55.9931111570912 -31.9130793373984 1.8
endloop
endfacet
facet normal -0.13052619222005 -0.991444861373811 -1.74729414609895e-015
outer loop
vertex -63.2190238375838 -49.3579757311673 1.8
vertex -65.8638914441722 -49.009772304972 -2.55206966670585e-013
vertex -63.2190238375838 -49.3579757311673 -2.55206966670585e-013
endloop
endfacet
facet normal -0.13052619222005 -0.991444861373811 -1.74729414609895e-015
outer loop
vertex -65.8638914441722 -49.009772304972 -2.55206966670585e-013
vertex -63.2190238375838 -49.3579757311673 1.8
vertex -65.8638914441722 -49.009772304972 1.8
endloop
endfacet
facet normal -0.923879532511289 -0.382683432365085 0.0
outer loop
vertex -73.0898041246648 -41.7838596244794 1.8
vertex -72.0689233341406 -44.2484838745291 -2.55206966670585e-013
vertex -72.0689233341406 -44.2484838745291 1.8
endloop
endfacet
facet normal -0.923879532511289 -0.382683432365085 0.0
outer loop
vertex -72.0689233341406 -44.2484838745291 -2.55206966670585e-013
vertex -73.0898041246648 -41.7838596244794 1.8
vertex -73.0898041246648 -41.7838596244794 -2.55206966670585e-013
endloop
endfacet
facet normal 0.923879532511286 0.382683432365091 0.0
outer loop
vertex -54.3691243410271 -34.0295001612528 -2.55206966670585e-013
vertex -53.3482435505029 -36.4941244113026 1.8
vertex -53.3482435505029 -36.4941244113026 -2.55206966670585e-013
endloop
endfacet
facet normal 0.923879532511286 0.382683432365091 0.0
outer loop
vertex -53.3482435505029 -36.4941244113026 1.8
vertex -54.3691243410271 -34.0295001612528 -2.55206966670585e-013
vertex -54.3691243410271 -34.0295001612528 1.8
endloop
endfacet
facet normal 0.382683432365085 -0.923879532511289 1.6155970853531e-015
outer loop
vertex -58.1095319809457 -47.9888915144477 1.8
vertex -60.5741562309955 -49.009772304972 -2.55206966670585e-013
vertex -58.1095319809457 -47.9888915144477 -2.55206966670585e-013
endloop
endfacet
facet normal 0.382683432365085 -0.923879532511289 1.6155970853531e-015
outer loop
vertex -60.5741562309955 -49.009772304972 -2.55206966670585e-013
vertex -58.1095319809457 -47.9888915144477 1.8
vertex -60.5741562309955 -49.009772304972 1.8
endloop
endfacet
facet normal 0.923879532511287 -0.382683432365089 0.0
outer loop
vertex -53.3482435505029 -41.7838596244794 -2.55206966670585e-013
vertex -54.3691243410271 -44.2484838745292 1.8
vertex -54.3691243410271 -44.2484838745292 -2.55206966670585e-013
endloop
endfacet
facet normal 0.923879532511287 -0.382683432365089 0.0
outer loop
vertex -54.3691243410271 -44.2484838745292 1.8
vertex -53.3482435505029 -41.7838596244794 -2.55206966670585e-013
vertex -53.3482435505029 -41.7838596244794 1.8
endloop
endfacet
facet normal -0.793353340291235 0.608761429008721 0.0
outer loop
vertex -70.4449365180764 -31.9130793373984 1.8
vertex -72.0689233341406 -34.0295001612528 -2.55206966670585e-013
vertex -72.0689233341406 -34.0295001612528 1.8
endloop
endfacet
facet normal -0.793353340291235 0.608761429008721 0.0
outer loop
vertex -72.0689233341406 -34.0295001612528 -2.55206966670585e-013
vertex -70.4449365180764 -31.9130793373984 1.8
vertex -70.4449365180764 -31.9130793373984 -2.55206966670585e-013
endloop
endfacet
facet normal 0.793353340291238 -0.608761429008717 0.0
outer loop
vertex -54.3691243410271 -44.2484838745292 -2.55206966670585e-013
vertex -55.9931111570912 -46.3649046983835 1.8
vertex -55.9931111570912 -46.3649046983835 -2.55206966670585e-013
endloop
endfacet
facet normal 0.793353340291238 -0.608761429008717 0.0
outer loop
vertex -55.9931111570912 -46.3649046983835 1.8
vertex -54.3691243410271 -44.2484838745292 -2.55206966670585e-013
vertex -54.3691243410271 -44.2484838745292 1.8
endloop
endfacet
facet normal -0.608761429008718 0.793353340291237 0.0
outer loop
vertex -70.4449365180764 -31.9130793373984 1.8
vertex -68.328515694222 -30.2890925213342 -2.55206966670585e-013
vertex -70.4449365180764 -31.9130793373984 -2.55206966670585e-013
endloop
endfacet
facet normal -0.608761429008718 0.793353340291237 0.0
outer loop
vertex -68.328515694222 -30.2890925213342 -2.55206966670585e-013
vertex -70.4449365180764 -31.9130793373984 1.8
vertex -68.328515694222 -30.2890925213342 1.8
endloop
endfacet
facet normal 0.99144486137381 0.130526192220056 0.0
outer loop
vertex -53.3482435505029 -36.4941244113026 -2.55206966670585e-013
vertex -53.0000401243075 -39.138992017891 1.8
vertex -53.0000401243075 -39.138992017891 -2.55206966670585e-013
endloop
endfacet
facet normal 0.99144486137381 0.130526192220056 0.0
outer loop
vertex -53.0000401243075 -39.138992017891 1.8
vertex -53.3482435505029 -36.4941244113026 -2.55206966670585e-013
vertex -53.3482435505029 -36.4941244113026 1.8
endloop
endfacet
facet normal -0.38268343236509 0.923879532511287 0.0
outer loop
vertex -68.328515694222 -30.2890925213342 1.8
vertex -65.8638914441722 -29.26821173081 -2.55206966670585e-013
vertex -68.328515694222 -30.2890925213342 -2.55206966670585e-013
endloop
endfacet
facet normal -0.38268343236509 0.923879532511287 0.0
outer loop
vertex -65.8638914441722 -29.26821173081 -2.55206966670585e-013
vertex -68.328515694222 -30.2890925213342 1.8
vertex -65.8638914441722 -29.26821173081 1.8
endloop
endfacet
facet normal -0.608761429008721 -0.793353340291235 0.0
outer loop
vertex -68.328515694222 -47.9888915144477 1.8
vertex -70.4449365180764 -46.3649046983836 -2.55206966670585e-013
vertex -68.328515694222 -47.9888915144477 -2.55206966670585e-013
endloop
endfacet
facet normal -0.608761429008721 -0.793353340291235 0.0
outer loop
vertex -70.4449365180764 -46.3649046983836 -2.55206966670585e-013
vertex -68.328515694222 -47.9888915144477 1.8
vertex -70.4449365180764 -46.3649046983836 1.8
endloop
endfacet
facet normal -0.130526192220049 0.991444861373811 0.0
outer loop
vertex -65.8638914441722 -29.26821173081 1.8
vertex -63.2190238375838 -28.9200083046147 -2.55206966670585e-013
vertex -65.8638914441722 -29.26821173081 -2.55206966670585e-013
endloop
endfacet
facet normal -0.130526192220049 0.991444861373811 0.0
outer loop
vertex -63.2190238375838 -28.9200083046147 -2.55206966670585e-013
vertex -65.8638914441722 -29.26821173081 1.8
vertex -63.2190238375838 -28.9200083046147 1.8
endloop
endfacet
facet normal 0.99144486137381 -0.130526192220055 0.0
outer loop
vertex -53.0000401243075 -39.138992017891 -2.55206966670585e-013
vertex -53.3482435505029 -41.7838596244794 1.8
vertex -53.3482435505029 -41.7838596244794 -2.55206966670585e-013
endloop
endfacet
facet normal 0.99144486137381 -0.130526192220055 0.0
outer loop
vertex -53.3482435505029 -41.7838596244794 1.8
vertex -53.0000401243075 -39.138992017891 -2.55206966670585e-013
vertex -53.0000401243075 -39.138992017891 1.8
endloop
endfacet
facet normal 0.130526192220052 0.99144486137381 0.0
outer loop
vertex -63.2190238375838 -28.9200083046147 1.8
vertex -60.5741562309954 -29.26821173081 -2.55206966670585e-013
vertex -63.2190238375838 -28.9200083046147 -2.55206966670585e-013
endloop
endfacet
facet normal 0.130526192220052 0.99144486137381 0.0
outer loop
vertex -60.5741562309954 -29.26821173081 -2.55206966670585e-013
vertex -63.2190238375838 -28.9200083046147 1.8
vertex -60.5741562309954 -29.26821173081 1.8
endloop
endfacet
facet normal 0.130526192220053 -0.99144486137381 0.0
outer loop
vertex -60.5741562309955 -49.009772304972 1.8
vertex -63.2190238375838 -49.3579757311673 -2.55206966670585e-013
vertex -60.5741562309955 -49.009772304972 -2.55206966670585e-013
endloop
endfacet
facet normal 0.130526192220053 -0.99144486137381 0.0
outer loop
vertex -63.2190238375838 -49.3579757311673 -2.55206966670585e-013
vertex -60.5741562309955 -49.009772304972 1.8
vertex -63.2190238375838 -49.3579757311673 1.8
endloop
endfacet
facet normal -0.923879532511288 0.382683432365088 0.0
outer loop
vertex -72.0689233341406 -34.0295001612528 1.8
vertex -73.0898041246648 -36.4941244113026 -2.55206966670585e-013
vertex -73.0898041246648 -36.4941244113026 1.8
endloop
endfacet
facet normal -0.923879532511288 0.382683432365088 0.0
outer loop
vertex -73.0898041246648 -36.4941244113026 -2.55206966670585e-013
vertex -72.0689233341406 -34.0295001612528 1.8
vertex -72.0689233341406 -34.0295001612528 -2.55206966670585e-013
endloop
endfacet
facet normal 0.382683432365093 0.923879532511285 0.0
outer loop
vertex -60.5741562309954 -29.26821173081 1.8
vertex -58.1095319809457 -30.2890925213343 -2.55206966670585e-013
vertex -60.5741562309954 -29.26821173081 -2.55206966670585e-013
endloop
endfacet
facet normal 0.382683432365093 0.923879532511285 0.0
outer loop
vertex -58.1095319809457 -30.2890925213343 -2.55206966670585e-013
vertex -60.5741562309954 -29.26821173081 1.8
vertex -58.1095319809457 -30.2890925213343 1.8
endloop
endfacet
facet normal -0.793353340291237 -0.608761429008718 0.0
outer loop
vertex -72.0689233341406 -44.2484838745291 1.8
vertex -70.4449365180764 -46.3649046983836 -2.55206966670585e-013
vertex -70.4449365180764 -46.3649046983836 1.8
endloop
endfacet
facet normal -0.793353340291237 -0.608761429008718 0.0
outer loop
vertex -70.4449365180764 -46.3649046983836 -2.55206966670585e-013
vertex -72.0689233341406 -44.2484838745291 1.8
vertex -72.0689233341406 -44.2484838745291 -2.55206966670585e-013
endloop
endfacet
facet normal -0.99144486137381 -0.130526192220055 0.0
outer loop
vertex -73.4380075508602 -39.138992017891 1.8
vertex -73.0898041246648 -41.7838596244794 -2.55206966670585e-013
vertex -73.0898041246648 -41.7838596244794 1.8
endloop
endfacet
facet normal -0.99144486137381 -0.130526192220055 0.0
outer loop
vertex -73.0898041246648 -41.7838596244794 -2.55206966670585e-013
vertex -73.4380075508602 -39.138992017891 1.8
vertex -73.4380075508602 -39.138992017891 -2.55206966670585e-013
endloop
endfacet
facet normal 0.608761429008718 0.793353340291237 0.0
outer loop
vertex -58.1095319809457 -30.2890925213343 1.8
vertex -55.9931111570912 -31.9130793373984 -2.55206966670585e-013
vertex -58.1095319809457 -30.2890925213343 -2.55206966670585e-013
endloop
endfacet
facet normal 0.608761429008718 0.793353340291237 0.0
outer loop
vertex -55.9931111570912 -31.9130793373984 -2.55206966670585e-013
vertex -58.1095319809457 -30.2890925213343 1.8
vertex -55.9931111570912 -31.9130793373984 1.8
endloop
endfacet
facet normal 0.60876142900872 -0.793353340291235 0.0
outer loop
vertex -55.9931111570912 -46.3649046983835 1.8
vertex -58.1095319809457 -47.9888915144477 -2.55206966670585e-013
vertex -55.9931111570912 -46.3649046983835 -2.55206966670585e-013
endloop
endfacet
facet normal 0.60876142900872 -0.793353340291235 0.0
outer loop
vertex -58.1095319809457 -47.9888915144477 -2.55206966670585e-013
vertex -55.9931111570912 -46.3649046983835 1.8
vertex -58.1095319809457 -47.9888915144477 1.8
endloop
endfacet
endsolid IDLER
